<!DOCTYPE svg PUBLIC "-//W3C//DTD SVG 1.1//EN" "http://www.w3.org/Graphics/SVG/1.1/DTD/svg11.dtd">
<!-- Uploaded to: SVG Repo, www.svgrepo.com, Transformed by: SVG Repo Mixer Tools -->
<svg fill="#fff" height="64px" width="64px" version="1.1" id="Layer_1" xmlns="http://www.w3.org/2000/svg" xmlns:xlink="http://www.w3.org/1999/xlink" viewBox="0 0 512.001 512.001" xml:space="preserve" stroke="#fff">
<g id="SVGRepo_bgCarrier" stroke-width="0"/>
<g id="SVGRepo_tracerCarrier" stroke-linecap="round" stroke-linejoin="round"/>
<g id="SVGRepo_iconCarrier"> <g> <g> <g> <path d="M110.066,75.087c-7.737,0-14.031,6.294-14.031,14.032c0,7.738,6.294,14.033,14.031,14.033 c7.738,0,14.034-6.294,14.034-14.033C124.1,81.381,117.804,75.087,110.066,75.087z M110.066,91.19 c-1.141,0-2.07-0.929-2.07-2.072c0-1.141,0.929-2.071,2.07-2.071c1.142,0,2.072,0.929,2.072,2.071S111.209,91.19,110.066,91.19z"/> <path d="M233.016,75.087c-7.737,0-14.032,6.294-14.032,14.032c0,7.738,6.294,14.033,14.032,14.033 c7.738,0,14.034-6.294,14.034-14.033C247.05,81.381,240.753,75.087,233.016,75.087z M233.016,91.19 c-1.141,0-2.07-0.929-2.07-2.072c0-1.141,0.929-2.071,2.07-2.071c1.142,0,2.072,0.929,2.072,2.071 C235.087,90.26,234.158,91.19,233.016,91.19z"/> <path d="M390.61,410.141c52.015-58.797,80.567-133.968,80.567-212.654c0-37.851-6.563-74.853-19.258-109.724 c-0.031-0.085-0.062-0.17-0.093-0.254c-0.78-2.139-1.586-4.27-2.412-6.391c-0.114-0.292-0.227-0.584-0.34-0.876 c-0.817-2.079-1.653-4.15-2.514-6.214c-0.072-0.173-0.141-0.347-0.214-0.518c-0.934-2.224-1.891-4.44-2.875-6.645 c-0.137-0.307-0.281-0.612-0.42-0.919c-0.796-1.766-1.606-3.527-2.435-5.28c-0.348-0.736-0.703-1.469-1.056-2.202 c-0.645-1.339-1.299-2.673-1.962-4.003c-0.407-0.815-0.815-1.629-1.228-2.439c-0.67-1.314-1.354-2.622-2.042-3.927 c-0.395-0.749-0.784-1.501-1.185-2.247c-1.052-1.956-2.121-3.904-3.215-5.84c-0.304-0.538-0.619-1.069-0.927-1.605 c-0.843-1.473-1.694-2.943-2.562-4.404c-0.45-0.758-0.91-1.513-1.367-2.267c-0.762-1.26-1.532-2.516-2.312-3.767 c-0.471-0.755-0.944-1.507-1.42-2.259c-0.84-1.322-1.693-2.637-2.553-3.949c-0.418-0.637-0.83-1.274-1.252-1.909 c-1.287-1.934-2.592-3.858-3.924-5.769c-1.584-2.27-4.226-3.564-6.981-3.438c-2.763,0.13-5.266,1.668-6.63,4.075l-10.538,18.608 L364.907,2.986c-1.556-1.922-3.949-3.031-6.378-2.984c-2.472,0.036-4.789,1.207-6.287,3.173c-1.47,1.93-2.91,3.877-4.333,5.833 c-0.372,0.512-0.734,1.03-1.104,1.543c-1.056,1.471-2.104,2.947-3.134,4.432c-0.39,0.563-0.773,1.128-1.159,1.693 c-1.03,1.505-2.047,3.016-3.05,4.536c-0.311,0.472-0.623,0.947-0.932,1.421c-1.143,1.753-2.268,3.515-3.375,5.285 c-0.137,0.221-0.278,0.44-0.415,0.662c-6.387,10.271-12.159,20.835-17.302,31.657c-6.899-14.551-14.924-28.589-23.941-41.965 c-0.944-1.4-1.872-2.81-2.837-4.193c-1.584-2.27-4.245-3.564-6.981-3.438c-2.763,0.13-5.266,1.668-6.63,4.075L266.51,33.325 L241.957,2.986c-1.556-1.922-3.941-3.031-6.379-2.984c-0.618,0.01-1.226,0.089-1.814,0.235c-1.765,0.437-3.348,1.463-4.472,2.938 c-1.47,1.93-2.909,3.876-4.332,5.831c-0.376,0.516-0.741,1.039-1.113,1.558c-1.051,1.463-2.094,2.932-3.119,4.409 c-0.397,0.572-0.787,1.149-1.18,1.723c-1.021,1.492-2.029,2.99-3.022,4.495c-0.321,0.486-0.64,0.974-0.958,1.461 c-1.133,1.737-2.248,3.483-3.345,5.238c-0.146,0.235-0.295,0.469-0.441,0.704c-6.383,10.266-12.153,20.826-17.292,31.643 c-6.645-14.015-14.329-27.558-22.941-40.487c-1.265-1.9-2.531-3.799-3.837-5.672c-1.187-1.703-2.979-2.856-4.957-3.273 c-0.659-0.138-1.34-0.196-2.025-0.164c-2.763,0.13-5.266,1.668-6.63,4.075l-10.538,18.608L119.007,2.986 c-1.556-1.922-3.934-3.031-6.378-2.984c-2.472,0.036-4.789,1.207-6.287,3.173c-1.47,1.93-2.91,3.877-4.333,5.833 c-0.372,0.512-0.734,1.03-1.104,1.543c-1.056,1.471-2.104,2.947-3.134,4.432c-0.39,0.563-0.773,1.128-1.159,1.693 c-1.03,1.505-2.047,3.016-3.05,4.536c-0.311,0.472-0.623,0.947-0.932,1.421c-1.143,1.753-2.268,3.515-3.375,5.285 c-0.138,0.221-0.278,0.44-0.415,0.662c-31.493,50.644-48.015,108.45-48.015,168.907c0,78.685,28.55,153.855,80.564,212.653 c-23.827,26.934-42.832,57.419-56.535,90.746c-1.324,3.219-0.428,6.924,2.218,9.185c2.648,2.26,6.449,2.564,9.419,0.75 c13.385-8.161,32.407-15.65,56.559-22.27c24.154,6.622,43.178,14.112,56.563,22.271c1.295,0.789,2.746,1.178,4.19,1.178 c0.249,0,0.498-0.014,0.746-0.036c1.673,0.146,3.388-0.224,4.892-1.142c13.383-8.161,32.405-15.649,56.558-22.27 c24.156,6.622,43.18,14.112,56.564,22.271c1.295,0.789,2.745,1.178,4.19,1.178c0.249,0,0.497-0.013,0.744-0.036 c1.673,0.147,3.389-0.224,4.894-1.142c13.385-8.161,32.407-15.65,56.559-22.27c24.154,6.622,43.178,14.111,56.564,22.271 c1.295,0.789,2.746,1.178,4.19,1.178c1.872,0,3.735-0.652,5.229-1.928c2.647-2.261,3.543-5.967,2.218-9.187 C433.448,467.565,414.44,437.08,390.61,410.141z M308.895,136.785c0.468-2.314,0.963-4.625,1.486-6.932 c0.008-0.031,0.015-0.062,0.023-0.093c0.272-1.199,0.57-2.391,0.857-3.586c23.898,13.232,51.511,20.186,80.548,20.186 c13.802,0,27.461-1.606,40.598-4.774c4.323-1.042,6.982-5.393,5.94-9.715c-1.042-4.323-5.391-6.978-9.715-5.94 c-11.904,2.871-24.293,4.325-36.824,4.325c-27.729,0-53.952-6.952-76.237-20.162c0.072-0.239,0.136-0.484,0.209-0.724 c0.005-0.018,0.011-0.038,0.016-0.056c0.166-0.551,0.341-1.096,0.51-1.646l0.028-0.09c0.502-1.63,1.015-3.253,1.545-4.872 c0.222-0.68,0.45-1.358,0.678-2.041c0.509-1.518,1.029-3.031,1.564-4.547c0.237-0.673,0.472-1.345,0.721-2.03 c0.57-1.585,1.158-3.157,1.753-4.726l0.638-1.684c0.556-1.436,1.128-2.864,1.704-4.289c0-0.001,0-0.002,0-0.002 c0.004-0.012,0.009-0.023,0.013-0.033c0.032-0.079,0.055-0.162,0.085-0.242c8.829-21.816,20.163-42.523,33.918-61.889 l25.43,31.418c1.676,2.072,4.267,3.166,6.922,2.96c2.656-0.22,5.03-1.738,6.343-4.056l9.919-17.512 c0.178,0.28,0.35,0.564,0.527,0.845c0.86,1.36,1.712,2.726,2.55,4.097c0.452,0.741,0.894,1.488,1.34,2.233 c0.563,0.939,1.125,1.88,1.677,2.825c0.484,0.828,0.961,1.66,1.436,2.492c0.498,0.872,0.993,1.746,1.484,2.622 c0.482,0.863,0.961,1.727,1.434,2.595c0.473,0.866,0.939,1.737,1.404,2.608c0.462,0.864,0.924,1.728,1.376,2.597 c0.495,0.949,0.978,1.904,1.462,2.859c0.4,0.788,0.807,1.574,1.2,2.364c0.835,1.68,1.654,3.369,2.457,5.063 c0.288,0.608,0.564,1.22,0.848,1.828c0.563,1.208,1.123,2.417,1.668,3.632c0.288,0.64,0.568,1.283,0.85,1.924 c0.542,1.23,1.08,2.462,1.606,3.7c0.244,0.573,0.485,1.148,0.726,1.722c0.586,1.402,1.162,2.808,1.726,4.218 c0.161,0.4,0.323,0.801,0.481,1.202c5.396,13.651,9.803,27.712,13.188,42.127c0.026,0.111,0.063,0.215,0.093,0.323 c5.278,22.613,7.972,45.923,7.972,69.579c0,74.537-26.971,145.762-76.124,201.544c-24.189-27.452-42.992-58.65-55.866-92.137 c-0.209-0.544-0.43-1.085-0.637-1.632c-0.724-1.914-1.42-3.837-2.105-5.765c-0.081-0.228-0.167-0.455-0.248-0.684 c-0.731-2.076-1.439-4.161-2.125-6.253c-0.021-0.064-0.044-0.128-0.064-0.192c-6.371-19.474-10.778-39.63-13.115-60.196 c-0.005-0.053-0.011-0.105-0.017-0.157c-0.249-2.201-0.474-4.407-0.675-6.617c-0.024-0.267-0.043-0.535-0.067-0.802 c-0.178-2.01-0.34-4.023-0.479-6.04c-0.039-0.568-0.065-1.137-0.101-1.705c-0.109-1.737-0.215-3.474-0.295-5.215 c-0.047-1.049-0.074-2.1-0.112-3.15c-0.046-1.288-0.102-2.577-0.131-3.867c-0.055-2.374-0.084-4.751-0.084-7.133 c0-1.919,0.019-3.836,0.055-5.75c0.021-1.167,0.06-2.332,0.096-3.497c0.021-0.713,0.035-1.428,0.061-2.14 c0.061-1.67,0.14-3.339,0.228-5.007c0.009-0.172,0.015-0.344,0.025-0.514c0.808-14.727,2.677-29.331,5.583-43.715 C308.881,136.837,308.889,136.811,308.895,136.785z M185.947,136.787c0.718-3.548,1.52-7.083,2.367-10.61 c23.898,13.231,51.509,20.185,80.544,20.185c2.317,0,4.664-0.046,6.973-0.137c4.443-0.175,7.903-3.919,7.728-8.363 c-0.175-4.443-3.923-7.914-8.363-7.728c-2.099,0.083-4.231,0.125-6.337,0.125c-27.726,0-53.947-6.951-76.23-20.157 c0.704-2.356,1.434-4.705,2.195-7.044c0.006-0.02,0.014-0.041,0.021-0.062c0.707-2.17,1.439-4.332,2.194-6.483 c0.179-0.51,0.371-1.018,0.554-1.527c0.599-1.678,1.2-3.354,1.828-5.019c0.834-2.208,1.692-4.409,2.579-6.602 c0.035-0.087,0.06-0.176,0.092-0.264c8.828-21.81,20.159-42.511,33.912-61.873l25.431,31.419 c1.673,2.069,4.264,3.163,6.918,2.957c2.656-0.22,5.03-1.738,6.343-4.056l9.915-17.507c9.338,14.688,17.426,30.196,24.13,46.275 c-11.656,29.666-18.781,60.995-21.134,93.276c-0.019,0.253-0.035,0.507-0.054,0.759c-0.116,1.637-0.223,3.275-0.315,4.917 c-0.036,0.638-0.064,1.275-0.096,1.914c-0.065,1.329-0.132,2.657-0.181,3.989c-0.041,1.066-0.067,2.134-0.097,3.201 c-0.027,0.961-0.06,1.921-0.078,2.884c-0.04,2.076-0.062,4.154-0.062,6.233c0,35.594,5.759,70.378,17.126,103.65 c0.047,0.138,0.099,0.276,0.146,0.414c0.738,2.15,1.493,4.295,2.278,6.433c0.45,1.226,0.924,2.443,1.389,3.664 c0.378,0.991,0.74,1.987,1.127,2.975c-12.867,30.889-30.599,59.237-52.791,84.41c-23.041-26.148-41.207-55.687-54.005-87.369 c0,0-0.003-0.01-0.005-0.014c-0.873-2.158-1.714-4.323-2.536-6.496c-0.551-1.459-1.076-2.927-1.604-4.393 c-0.247-0.686-0.505-1.37-0.746-2.057c-0.64-1.82-1.256-3.647-1.862-5.479c-0.107-0.324-0.22-0.646-0.326-0.97 c-0.662-2.029-1.303-4.066-1.923-6.109c-0.035-0.115-0.072-0.229-0.106-0.344c-5.262-17.415-8.967-35.342-11.044-53.593 c-0.011-0.099-0.02-0.198-0.031-0.295c-0.244-2.16-0.465-4.323-0.662-6.492c-0.028-0.302-0.049-0.605-0.076-0.907 c-0.174-1.977-0.335-3.957-0.471-5.941c-0.041-0.598-0.07-1.199-0.106-1.798c-0.107-1.709-0.211-3.418-0.291-5.132 c-0.048-1.068-0.076-2.139-0.114-3.209c-0.045-1.27-0.1-2.538-0.129-3.81c-0.054-2.375-0.084-4.754-0.084-7.136 c0-2.272,0.031-4.539,0.081-6.804c0.014-0.652,0.038-1.301,0.056-1.953c0.047-1.673,0.104-3.343,0.178-5.01 c0.029-0.655,0.06-1.309,0.093-1.962c0.093-1.843,0.202-3.683,0.327-5.521c0.027-0.392,0.05-0.784,0.078-1.176 c0.935-12.888,2.695-25.639,5.239-38.219C185.936,136.824,185.942,136.806,185.947,136.787z M56.928,197.488 c0-24.348,2.828-48.242,8.355-71.358c23.916,13.26,51.556,20.23,80.624,20.23c1.65,0,3.296-0.023,4.933-0.069 c4.446-0.126,7.947-3.83,7.822-8.275c-0.125-4.446-3.87-7.941-8.275-7.822c-1.488,0.042-2.98,0.063-4.48,0.063 c-27.735,0-53.963-6.956-76.25-20.169c9.514-31.845,24.081-61.67,43.395-88.862l25.43,31.418c1.676,2.071,4.27,3.164,6.922,2.959 c2.656-0.22,5.03-1.738,6.343-4.056l9.915-17.507c9.34,14.69,17.426,30.197,24.129,46.274 c-10.86,27.641-17.787,56.725-20.586,86.678c-0.031,0.33-0.059,0.659-0.09,0.989c-0.178,1.976-0.339,3.956-0.482,5.94 c-0.043,0.589-0.085,1.18-0.125,1.77c-0.116,1.753-0.216,3.511-0.305,5.269c-0.035,0.707-0.075,1.415-0.106,2.123 c-0.075,1.731-0.131,3.464-0.179,5.2c-0.019,0.681-0.046,1.36-0.061,2.042c-0.052,2.383-0.083,4.77-0.083,7.162 c0,35.595,5.759,70.381,17.128,103.654c0.036,0.107,0.076,0.215,0.114,0.322c0.747,2.18,1.514,4.355,2.31,6.523 c0.438,1.197,0.902,2.384,1.355,3.575c0.388,1.02,0.761,2.044,1.161,3.061c-12.866,30.886-30.597,59.235-52.79,84.41 C83.892,343.248,56.928,272.027,56.928,197.488z M135.14,472.433c-0.685-0.184-1.388-0.276-2.09-0.276s-1.406,0.092-2.089,0.276 c-15.978,4.294-29.982,8.997-41.885,14.057c11.771-23.555,26.5-45.413,43.974-65.243c17.479,19.837,32.206,41.69,43.979,65.245 C165.124,481.432,151.119,476.728,135.14,472.433z M194.527,485.695c-12.962-27.435-29.658-52.766-49.817-75.554 c20.184-22.808,36.871-48.102,49.809-75.456c12.842,27.132,29.546,52.537,49.819,75.456 C224.181,432.927,207.487,458.258,194.527,485.695z M258.089,472.433c-0.685-0.184-1.388-0.276-2.09-0.276 c-0.702,0-1.405,0.092-2.089,0.276c-15.978,4.294-29.983,8.998-41.885,14.057c11.772-23.556,26.497-45.41,43.974-65.243 c17.479,19.837,32.206,41.69,43.979,65.245C288.075,481.432,274.068,476.728,258.089,472.433z M317.476,485.696 c-12.962-27.435-29.658-52.766-49.817-75.554c20.183-22.806,36.87-48.101,49.809-75.457 c12.841,27.132,29.547,52.537,49.82,75.456C347.132,432.925,330.438,458.256,317.476,485.696z M381.04,472.433 c-0.685-0.184-1.388-0.276-2.09-0.276s-1.406,0.092-2.089,0.276c-15.978,4.294-29.982,8.997-41.885,14.057 c11.771-23.555,26.5-45.413,43.974-65.243c17.479,19.837,32.206,41.69,43.979,65.245 C411.024,481.432,397.019,476.728,381.04,472.433z"/> <path d="M355.966,75.087c-7.737,0-14.032,6.294-14.032,14.032c0,7.738,6.294,14.033,14.032,14.033 c7.738,0,14.034-6.294,14.034-14.033C370,81.381,363.705,75.087,355.966,75.087z M355.966,91.19c-1.141,0-2.07-0.929-2.07-2.072 c0-1.141,0.929-2.071,2.07-2.071c1.142,0,2.072,0.929,2.072,2.071S357.109,91.19,355.966,91.19z"/> <path d="M378.546,166.054l58.165,45.677c1.474,1.158,3.227,1.72,4.967,1.72c2.387,0,4.749-1.055,6.337-3.079 c2.747-3.498,2.137-8.558-1.36-11.305L388.49,153.39c-3.495-2.746-8.559-2.14-11.305,1.359 C374.438,158.247,375.048,163.308,378.546,166.054z"/> <path d="M439.014,243.747l-12.283-9.646c-3.495-2.746-8.559-2.139-11.305,1.36c-2.747,3.497-2.137,8.558,1.36,11.305 l12.283,9.646c1.474,1.158,3.227,1.72,4.967,1.72c2.387,0,4.75-1.055,6.337-3.079 C443.121,251.556,442.512,246.494,439.014,243.747z"/> <path d="M316.861,168.289l79.538,62.464c1.474,1.158,3.227,1.72,4.967,1.72c2.387,0,4.75-1.055,6.337-3.079 c2.747-3.497,2.138-8.558-1.36-11.305l-79.538-62.463c-3.494-2.746-8.558-2.139-11.305,1.36 C312.754,160.481,313.363,165.542,316.861,168.289z"/> <path d="M313.715,216.498l105.87,83.143c1.474,1.158,3.227,1.72,4.967,1.72c2.387,0,4.749-1.055,6.337-3.079 c2.747-3.498,2.138-8.56-1.36-11.306l-105.87-83.143c-3.495-2.746-8.557-2.139-11.305,1.36 C309.608,208.69,310.217,213.752,313.715,216.498z"/> <path d="M412.377,324.185l-46.627-36.617c-3.494-2.746-8.557-2.139-11.305,1.36c-2.747,3.497-2.137,8.558,1.36,11.305 l46.627,36.617c1.474,1.158,3.227,1.72,4.967,1.72c2.387,0,4.749-1.055,6.337-3.079 C416.483,331.993,415.875,326.932,412.377,324.185z"/> <path d="M348.493,284.254c2.747-3.498,2.137-8.56-1.359-11.306l-16.648-13.075c-3.498-2.746-8.558-2.137-11.306,1.359 c-2.747,3.498-2.137,8.56,1.359,11.306l16.648,13.075c1.475,1.158,3.228,1.72,4.969,1.72 C344.541,287.332,346.905,286.275,348.493,284.254z"/> <path d="M388.491,356.103l-29.965-23.534c-3.497-2.746-8.56-2.137-11.306,1.359c-2.747,3.498-2.138,8.56,1.359,11.306 l29.965,23.534c1.475,1.158,3.228,1.72,4.968,1.72c2.387,0,4.75-1.055,6.337-3.078 C392.596,363.913,391.988,358.851,388.491,356.103z"/> <path d="M256.509,166.054l13.359,10.491c1.474,1.158,3.227,1.72,4.967,1.72c2.387,0,4.749-1.056,6.337-3.079 c2.747-3.498,2.137-8.56-1.36-11.305l-13.359-10.492c-3.494-2.746-8.558-2.136-11.305,1.36 C252.403,158.247,253.011,163.308,256.509,166.054z"/> <path d="M194.825,168.289l73.153,57.45c1.474,1.158,3.227,1.72,4.967,1.72c2.387,0,4.749-1.055,6.337-3.079 c2.747-3.497,2.138-8.558-1.36-11.305l-73.153-57.45c-3.495-2.746-8.558-2.139-11.305,1.36 C190.719,160.481,191.327,165.542,194.825,168.289z"/> <path d="M233.095,238.786c-2.747,3.498-2.138,8.558,1.36,11.305l40.009,31.419c1.474,1.158,3.227,1.72,4.967,1.72 c2.387,0,4.749-1.056,6.337-3.079c2.747-3.498,2.137-8.558-1.36-11.305l-40.009-31.419 C240.905,234.681,235.842,235.29,233.095,238.786z"/> <path d="M191.678,216.498l26.697,20.967c1.475,1.158,3.228,1.719,4.968,1.719c2.387,0,4.749-1.055,6.337-3.078 c2.747-3.498,2.137-8.56-1.359-11.306l-26.697-20.967c-3.498-2.746-8.56-2.137-11.306,1.359 C187.572,208.69,188.182,213.752,191.678,216.498z"/> <path d="M197.145,261.232c-2.747,3.497-2.138,8.558,1.36,11.305l81.891,64.312c1.474,1.158,3.227,1.72,4.967,1.72 c2.387,0,4.749-1.055,6.337-3.079c2.747-3.497,2.137-8.558-1.36-11.305l-81.891-64.312 C204.956,257.127,199.892,257.735,197.145,261.232z"/> <path d="M266.456,356.103L236.49,332.57c-3.497-2.746-8.558-2.137-11.306,1.359c-2.747,3.498-2.137,8.56,1.359,11.306 l29.965,23.534c1.475,1.158,3.228,1.72,4.969,1.72c2.387,0,4.749-1.055,6.337-3.078 C270.561,363.913,269.952,358.851,266.456,356.103z"/> <path d="M132.908,166.054l13.359,10.491c1.474,1.158,3.227,1.72,4.967,1.72c2.387,0,4.749-1.056,6.337-3.079 c2.747-3.498,2.137-8.56-1.36-11.305l-13.359-10.492c-3.494-2.746-8.558-2.136-11.305,1.36 C128.802,158.247,129.412,163.308,132.908,166.054z"/> <path d="M71.224,168.289l73.153,57.45c1.474,1.158,3.227,1.72,4.967,1.72c2.387,0,4.749-1.055,6.337-3.079 c2.747-3.497,2.138-8.558-1.36-11.305l-73.153-57.45c-3.494-2.746-8.558-2.139-11.305,1.36 C67.118,160.481,67.728,165.542,71.224,168.289z"/> <path d="M155.829,283.23c2.387,0,4.749-1.055,6.337-3.079c2.747-3.497,2.137-8.558-1.36-11.305l-82.783-65.013 c-3.496-2.746-8.557-2.139-11.305,1.36c-2.747,3.497-2.137,8.558,1.36,11.305l82.783,65.013 C152.335,282.668,154.089,283.23,155.829,283.23z"/> <path d="M137.568,311.511c-2.747,3.498-2.138,8.56,1.359,11.306l17.868,14.033c1.475,1.158,3.228,1.72,4.969,1.72 c2.387,0,4.749-1.055,6.337-3.078c2.747-3.498,2.137-8.56-1.359-11.306l-17.868-14.033 C145.378,307.405,140.316,308.013,137.568,311.511z"/> <path d="M123.982,308.898c2.387,0,4.749-1.055,6.337-3.079c2.747-3.497,2.137-8.558-1.36-11.305l-44.11-34.641 c-3.496-2.746-8.557-2.139-11.305,1.36c-2.747,3.497-2.137,8.558,1.36,11.305l44.11,34.641 C120.488,308.336,122.241,308.898,123.982,308.898z"/> <path d="M144.214,367.41c2.747-3.498,2.137-8.56-1.359-11.306l-29.965-23.534c-3.497-2.746-8.56-2.138-11.306,1.359 c-2.747,3.498-2.137,8.56,1.359,11.306l29.965,23.534c1.475,1.158,3.228,1.72,4.968,1.72 C140.262,370.488,142.625,369.432,144.214,367.41z"/> </g> </g> </g> </g>
</svg>