<!DOCTYPE svg PUBLIC "-//W3C//DTD SVG 1.1//EN" "http://www.w3.org/Graphics/SVG/1.1/DTD/svg11.dtd">
<!-- Uploaded to: SVG Repo, www.svgrepo.com, Transformed by: SVG Repo Mixer Tools -->
<svg fill="#fff" height="64px" width="64px" version="1.1" id="Layer_1" xmlns="http://www.w3.org/2000/svg" xmlns:xlink="http://www.w3.org/1999/xlink" viewBox="0 0 512 512" xml:space="preserve" stroke="#fff">
<g id="SVGRepo_bgCarrier" stroke-width="0"/>
<g id="SVGRepo_tracerCarrier" stroke-linecap="round" stroke-linejoin="round"/>
<g id="SVGRepo_iconCarrier"> <g> <g> <g> <path d="M356.631,438.693c-62.936,12.053-125.898-4.068-172.757-44.233c-3.414-2.927-8.553-2.529-11.479,0.883 c-2.925,3.414-2.531,8.553,0.883,11.479c39.661,33.995,89.93,52.066,142.446,52.066c14.542,0,29.261-1.385,43.97-4.203 c4.416-0.846,7.31-5.112,6.464-9.527C365.312,440.742,361.051,437.854,356.631,438.693z"/> <path d="M165.173,378.215c-2.854-2.461-5.688-5.001-8.425-7.547c-3.29-3.063-8.442-2.879-11.506,0.414 c-3.063,3.29-2.878,8.442,0.414,11.506c2.886,2.687,5.875,5.363,8.883,7.959c1.538,1.326,3.43,1.976,5.314,1.976 c2.285,0,4.558-0.957,6.169-2.824C168.958,386.294,168.578,381.152,165.173,378.215z"/> <path d="M493.72,369.731c-2.233-3.417-6.65-4.653-10.332-2.891l-50.287,24.071c-13.8-22.865-38.861-37.786-66.712-37.786 c-5.067,0-10.176,0.503-15.187,1.493c-4.72,0.931-9.907,1.406-15.419,1.406c-39.231,0.002-84.506-21.852-121.115-58.459 c-48.471-48.469-63.579-103.497-57.05-136.531c6.437-32.583-8.547-64.505-35.139-81.189l24.64-51.477 c1.763-3.682,0.525-8.099-2.891-10.331c-2.063-1.347-51.112-32.739-101.499-9.483c-3.507,1.62-5.395,5.482-4.516,9.245 L51.32,73.88c-23.481,9.767-41.507,30.771-46.676,56.926c-18.038,91.296,20.19,197.443,99.766,277.018 c32.433,32.434,70.626,59.04,110.454,76.941c39.634,17.815,81.338,27.232,120.599,27.233c0.003,0,0.007,0,0.009,0 c15.686,0,31.148-1.483,45.956-4.41c20.431-4.036,38.066-15.787,49.659-33.087c2.555-3.814,4.727-7.806,6.553-11.916 l56.321,13.16c0.619,0.144,1.241,0.214,1.854,0.214c3.117,0,6.037-1.799,7.39-4.729 C526.459,420.848,495.067,371.795,493.72,369.731z M129.128,28.243l-21.269,44.436c-3.728-1.358-7.605-2.451-11.616-3.243 c-1.553-0.307-3.119-0.55-4.687-0.763V45.174c0-4.497-3.644-8.141-8.141-8.141c-4.497,0-8.141,3.644-8.141,8.141v23 c-2.81,0.21-5.586,0.563-8.317,1.069l-11.31-48.399C86.319,9.862,116.485,21.885,129.128,28.243z M417.559,465.439 c-9.171,13.688-23.124,22.985-39.287,26.178c-13.772,2.721-28.17,4.1-42.8,4.1c-0.002,0-0.005,0-0.008,0 c-76.353-0.002-156.373-36.234-219.541-99.405C40.137,320.528,3.617,220.001,20.616,133.964 c5.697-28.821,31.114-49.74,60.44-49.74c4.01,0,8.059,0.398,12.031,1.183c33.366,6.595,55.149,39.105,48.558,72.47 c-7.368,37.276,8.793,98.486,61.509,151.202c39.595,39.594,89.175,63.231,132.629,63.228c6.569,0,12.818-0.577,18.575-1.715 c3.973-0.785,8.021-1.183,12.03-1.183c29.324,0,54.742,20.919,60.439,49.741C430.021,435.312,426.73,451.752,417.559,465.439z M490.912,458.312l-48.248-11.274c2.109-10.101,2.197-20.619,0.136-31.047c-0.7-3.545-1.644-6.992-2.798-10.331l43.511-20.828 c2.036,4.049,4.649,9.898,6.905,16.976l-25.924,6.885c-4.346,1.155-6.933,5.613-5.779,9.958c0.969,3.645,4.262,6.054,7.863,6.054 c0.691,0,1.395-0.089,2.095-0.275l25.529-6.78C496.147,429.965,496.007,444.084,490.912,458.312z"/> </g> </g> </g> </g>
</svg>